<svg xmlns="http://www.w3.org/2000/svg" width="900" height="420" viewBox="0 0 900 420">
    <defs>
    <marker id="arrow" markerWidth="8" markerHeight="8" refX="6" refY="3" orient="auto">
    <polygon points="0,0 6,3 0,6" fill="#333"/>
    </marker>
    <linearGradient id="grad" x1="0" x2="1" y1="0" y2="0">
    <stop offset="0%" stop-color="#17becf" stop-opacity="0.15"/>
    <stop offset="50%" stop-color="#8c564b" stop-opacity="0.15"/>
    <stop offset="100%" stop-color="#9467bd" stop-opacity="0.15"/>
    </linearGradient>
    <filter id="soft" x="-0.1" y="-0.1" width="1.2" height="1.2">
    <feDropShadow dx="0" dy="1" stdDeviation="1" flood-color="#bbb" flood-opacity="0.6"/>
    </filter>
    </defs>
    <text x="450" y="28" text-anchor="middle" font-family="DejaVu Sans" font-size="18" fill="#333">Circuit–Pathway Duality in Unified S-Entropy Space</text>
    <text x="220" y="55" text-anchor="middle" font-family="DejaVu Sans" font-size="13" fill="#777">Electrical Circuit Space (Scircuit = [Scurrent, Svoltage, Simpedance])</text>
    <text x="680" y="55" text-anchor="middle" font-family="DejaVu Sans" font-size="13" fill="#777">Biological Pathway Space (Spathway = [Sflux, Spotential, Sresistance])</text>
    
    <!-- Left panel: circuit --> <g transform="translate(80,70)" filter="url(#soft)"> <rect x="0" y="0" width="280" height="260" rx="12" fill="url(#grad)" stroke="#bbb"/> <text x="140" y="28" text-anchor="middle" font-family="DejaVu Sans" font-size="12" fill="#333">Scircuit</text> <!-- Axes --> <line x1="40" y1="220" x2="240" y2="220" stroke="#333" marker-end="url(#arrow)"/> <line x1="40" y1="220" x2="40" y2="60" stroke="#333" marker-end="url(#arrow)"/> <line x1="40" y1="220" x2="140" y2="300" stroke="#333" marker-end="url(#arrow)"/> <text x="245" y="225" font-size="11" font-family="DejaVu Sans" fill="#17becf">Scurrent</text> <text x="22" y="68" font-size="11" font-family="DejaVu Sans" fill="#8c564b" transform="rotate(-90 22,68)">Svoltage</text> <text x="150" y="312" font-size="11" font-family="DejaVu Sans" fill="#9467bd">Simpedance</text> <!-- Elements --> <g font-family="DejaVu Sans" font-size="12"> <rect x="70" y="90" width="78" height="28" rx="6" fill="#1f77b4" opacity="0.12" stroke="#1f77b4"/> <text x="109" y="108" text-anchor="middle" fill="#1f77b4">Transistor</text> <rect x="160" y="130" width="70" height="28" rx="6" fill="#2ca02c" opacity="0.12" stroke="#2ca02c"/> <text x="195" y="148" text-anchor="middle" fill="#2ca02c">Logic</text> <rect x="90" y="175" width="70" height="28" rx="6" fill="#ff7f0e" opacity="0.12" stroke="#ff7f0e"/> <text x="125" y="193" text-anchor="middle" fill="#ff7f0e">Memory</text> <rect x="170" y="205" width="92" height="28" rx="6" fill="#9467bd" opacity="0.12" stroke="#9467bd"/> <text x="216" y="223" text-anchor="middle" fill="#9467bd">Interconnect</text> </g> </g> <!-- Right panel: pathway --> <g transform="translate(540,70)" filter="url(#soft)"> <rect x="0" y="0" width="280" height="260" rx="12" fill="url(#grad)" stroke="#bbb"/> <text x="140" y="28" text-anchor="middle" font-family="DejaVu Sans" font-size="12" fill="#333">Spathway</text> <!-- Axes --> <line x1="40" y1="220" x2="240" y2="220" stroke="#333" marker-end="url(#arrow)"/> <line x1="40" y1="220" x2="40" y2="60" stroke="#333" marker-end="url(#arrow)"/> <line x1="40" y1="220" x2="140" y2="300" stroke="#333" marker-end="url(#arrow)"/> <text x="245" y="225" font-size="11" font-family="DejaVu Sans" fill="#17becf">Sflux</text> <text x="22" y="68" font-size="11" font-family="DejaVu Sans" fill="#8c564b" transform="rotate(-90 22,68)">Spotential</text> <text x="150" y="312" font-size="11" font-family="DejaVu Sans" fill="#9467bd">Sresistance</text> <!-- Elements --> <g font-family="DejaVu Sans" font-size="12"> <rect x="70" y="90" width="120" height="28" rx="6" fill="#1f77b4" opacity="0.12" stroke="#1f77b4"/> <text x="130" y="108" text-anchor="middle" fill="#1f77b4">BMD Transistor</text> <rect x="160" y="130" width="92" height="28" rx="6" fill="#2ca02c" opacity="0.12" stroke="#2ca02c"/> <text x="206" y="148" text-anchor="middle" fill="#2ca02c">S-Logic Gate</text> <rect x="90" y="175" width="120" height="28" rx="6" fill="#ff7f0e" opacity="0.12" stroke="#ff7f0e"/> <text x="150" y="193" text-anchor="middle" fill="#ff7f0e">S-Dictionary Memory</text> <rect x="170" y="205" width="92" height="28" rx="6" fill="#9467bd" opacity="0.12" stroke="#9467bd"/> <text x="216" y="223" text-anchor="middle" fill="#9467bd">Gear Interconnect</text> </g> </g> <!-- Mapping and S-distance --> <g font-family="DejaVu Sans"> <path d="M360,200 C420,140 480,140 540,200" fill="none" stroke="#777" stroke-dasharray="6 4" marker-end="url(#arrow)"/> <text x="450" y="155" text-anchor="middle" font-size="12" fill="#333">S-space transform T, ∥Scircuit − Spathway∥ &lt; 0.1</text> <circle cx="450" cy="240" r="26" fill="white" stroke="#bbb"/> <text x="450" y="235" text-anchor="middle" font-size="12" fill="#333">ΔS</text> <text x="450" y="250" text-anchor="middle" font-size="10" fill="#777">Domain-agnostic</text> </g> </svg>
    